<?xml version="1.0" encoding="utf-8"?>
<!-- Generator: Adobe Illustrator 22.1.0, SVG Export Plug-In . SVG Version: 6.00 Build 0)  -->
<svg version="1.1" id="Layer_1" xmlns="http://www.w3.org/2000/svg" xmlns:xlink="http://www.w3.org/1999/xlink" x="0px" y="0px"
	 viewBox="0 0 300 200" style="enable-background:new 0 0 300 200;" xml:space="preserve">
<style type="text/css">
	.st0{fill:#3C677F;}
	.st1{fill:#FFFFFF;}
</style>
<g>
	<circle class="st0" cx="150" cy="94.7" r="72.3"/>
	<g>
		<path class="st1" d="M189.6,63c-3,3.4-6,6.8-9.1,10.2c-3,3.4-6.1,6.8-9.1,10.1c-3.1,3.4-6.1,6.7-9.2,10c-3.1,3.3-6.2,6.6-9.2,10.1
			l-1.2,1.3l-2-0.6c-3.2-1-6.3-2-9.4-3.1c-3.1-1.2-6.1-2.5-9.1-3.9c-3-1.4-6-2.9-8.9-4.4c-2.9-1.6-5.8-3.3-8.6-5.2l0.2-0.6
			c3.4,0.4,6.6,1.1,9.9,1.9c3.2,0.8,6.4,1.7,9.6,2.6c3.2,1,6.3,2,9.4,3.2c3.1,1.2,6.1,2.6,9.1,3.9l-3.2,0.7c3.4-3,6.7-6.1,10.1-9.2
			c3.3-3.1,6.7-6.2,10-9.2c3.3-3.1,6.7-6.1,10.1-9.1c3.4-3,6.8-6.1,10.2-9.1L189.6,63z"/>
	</g>
</g>
</svg>
